HIERARCHY
ROOT Hips
{
  OFFSET 5.80788e-005 67.184 3.4734
  CHANNELS 6 Xposition Yposition Zposition Zrotation Xrotation Yrotation
  JOINT Chest
  {
    OFFSET 0 8.7983 -4.7612
    CHANNELS 6 Xposition Yposition Zposition Zrotation Xrotation Yrotation
    JOINT Chest2
    {
      OFFSET 0 8.0291 0.4195
      CHANNELS 6 Xposition Yposition Zposition Zrotation Xrotation Yrotation
      JOINT Chest3
      {
        OFFSET 0 9.9351 -2.2114
        CHANNELS 6 Xposition Yposition Zposition Zrotation Xrotation Yrotation
        JOINT Neck
        {
          OFFSET 0 22.3885 -0.4656
          CHANNELS 6 Xposition Yposition Zposition Zrotation Xrotation Yrotation
          JOINT Head
          {
            OFFSET -0.0001 12.643 3.4389
            CHANNELS 6 Xposition Yposition Zposition Zrotation Xrotation Yrotation
            End Site
            {
              OFFSET 0.0001 17.6655 0.5274
            }
          }
        }
        JOINT LeftCollar
        {
          OFFSET 2.2603 21.606 7.4023
          CHANNELS 6 Xposition Yposition Zposition Zrotation Xrotation Yrotation
          JOINT LeftShoulder
          {
            OFFSET 13.5163 -1.1332 -5.0146
            CHANNELS 6 Xposition Yposition Zposition Zrotation Xrotation Yrotation
            JOINT LeftElbow
            {
              OFFSET -0.0995 -28.05 -0.2431
              CHANNELS 6 Xposition Yposition Zposition Zrotation Xrotation Yrotation
              JOINT LeftWrist
              {
                OFFSET 0.0679 -23.3996 -0.1402
                CHANNELS 6 Xposition Yposition Zposition Zrotation Xrotation Yrotation
                JOINT LeftFinger1
                {
                  OFFSET 0.7932 -9.069 2.5189
                  CHANNELS 6 Xposition Yposition Zposition Zrotation Xrotation Yrotation
                  JOINT LeftFinger11
                  {
                    OFFSET -0.8272 -3.3923 0.5977
                    CHANNELS 6 Xposition Yposition Zposition Zrotation Xrotation Yrotation
                    JOINT LeftFinger12
                    {
                      OFFSET -0.5649 -2.3158 0.4082
                      CHANNELS 6 Xposition Yposition Zposition Zrotation Xrotation Yrotation
                      End Site
                      {
                        OFFSET -0.4919 -1.6479 0.2673
                      }
                    }
                  }
                }
                JOINT LeftFinger2
                {
                  OFFSET 0.9159 -9.2044 0.2193
                  CHANNELS 6 Xposition Yposition Zposition Zrotation Xrotation Yrotation
                  JOINT LeftFinger21
                  {
                    OFFSET 0.0117 -4.1944 -0.0248
                    CHANNELS 6 Xposition Yposition Zposition Zrotation Xrotation Yrotation
                    JOINT LeftFinger22
                    {
                      OFFSET 0.0071 -2.3249 -0.0142
                      CHANNELS 6 Xposition Yposition Zposition Zrotation Xrotation Yrotation
                      End Site
                      {
                        OFFSET -0.1475 -2.0882 0.0028
                      }
                    }
                  }
                }
                JOINT LeftFinger3
                {
                  OFFSET 0.6113 -8.7231 -2.0637
                  CHANNELS 6 Xposition Yposition Zposition Zrotation Xrotation Yrotation
                  JOINT LeftFinger31
                  {
                    OFFSET -0.1927 -3.8059 -0.2383
                    CHANNELS 6 Xposition Yposition Zposition Zrotation Xrotation Yrotation
                    JOINT LeftFinger32
                    {
                      OFFSET -0.1091 -2.1688 -0.1362
                      CHANNELS 6 Xposition Yposition Zposition Zrotation Xrotation Yrotation
                      End Site
                      {
                        OFFSET -0.2358 -1.9176 -0.0906
                      }
                    }
                  }
                }
                JOINT LeftFinger4
                {
                  OFFSET -0.6151 -8.0947 -3.5641
                  CHANNELS 6 Xposition Yposition Zposition Zrotation Xrotation Yrotation
                  JOINT LeftFinger41
                  {
                    OFFSET -0.4882 -2.341 -0.6462
                    CHANNELS 6 Xposition Yposition Zposition Zrotation Xrotation Yrotation
                    JOINT LeftFinger42
                    {
                      OFFSET -0.3575 -1.7167 -0.4742
                      CHANNELS 6 Xposition Yposition Zposition Zrotation Xrotation Yrotation
                      End Site
                      {
                        OFFSET -0.4187 -1.5237 -0.3496
                      }
                    }
                  }
                }
                JOINT LeftFinger0
                {
                  OFFSET -1.42 -1.8761 1.4223
                  CHANNELS 6 Xposition Yposition Zposition Zrotation Xrotation Yrotation
                  JOINT LeftFinger01
                  {
                    OFFSET -1.1471 -3.4929 2.6334
                    CHANNELS 6 Xposition Yposition Zposition Zrotation Xrotation Yrotation
                    JOINT LeftFinger02
                    {
                      OFFSET -0.823 -2.3 1.6571
                      CHANNELS 6 Xposition Yposition Zposition Zrotation Xrotation Yrotation
                      End Site
                      {
                        OFFSET -0.5822 -1.6914 1.1582
                      }
                    }
                  }
                }
              }
            }
          }
        }
        JOINT RightCollar
        {
          OFFSET -2.2603 21.606 7.4023
          CHANNELS 6 Xposition Yposition Zposition Zrotation Xrotation Yrotation
          JOINT RightShoulder
          {
            OFFSET -13.5187 -1.1334 -5.0155
            CHANNELS 6 Xposition Yposition Zposition Zrotation Xrotation Yrotation
            JOINT RightElbow
            {
              OFFSET 0.0994 -28.0499 -0.2431
              CHANNELS 6 Xposition Yposition Zposition Zrotation Xrotation Yrotation
              JOINT RightWrist
              {
                OFFSET -0.0679 -23.3996 -0.1402
                CHANNELS 6 Xposition Yposition Zposition Zrotation Xrotation Yrotation
                JOINT RightFinger1
                {
                  OFFSET -0.7932 -9.0691 2.5189
                  CHANNELS 6 Xposition Yposition Zposition Zrotation Xrotation Yrotation
                  JOINT RightFinger11
                  {
                    OFFSET 0.8272 -3.3923 0.5977
                    CHANNELS 6 Xposition Yposition Zposition Zrotation Xrotation Yrotation
                    JOINT RightFinger12
                    {
                      OFFSET 0.565 -2.3158 0.4082
                      CHANNELS 6 Xposition Yposition Zposition Zrotation Xrotation Yrotation
                      End Site
                      {
                        OFFSET 0.4919 -1.6479 0.2673
                      }
                    }
                  }
                }
                JOINT RightFinger2
                {
                  OFFSET -0.916 -9.2044 0.2193
                  CHANNELS 6 Xposition Yposition Zposition Zrotation Xrotation Yrotation
                  JOINT RightFinger21
                  {
                    OFFSET -0.0117 -4.1944 -0.0248
                    CHANNELS 6 Xposition Yposition Zposition Zrotation Xrotation Yrotation
                    JOINT RightFinger22
                    {
                      OFFSET -0.0071 -2.3249 -0.0142
                      CHANNELS 6 Xposition Yposition Zposition Zrotation Xrotation Yrotation
                      End Site
                      {
                        OFFSET 0.1475 -2.0882 0.0028
                      }
                    }
                  }
                }
                JOINT RightFinger3
                {
                  OFFSET -0.6113 -8.7231 -2.0637
                  CHANNELS 6 Xposition Yposition Zposition Zrotation Xrotation Yrotation
                  JOINT RightFinger31
                  {
                    OFFSET 0.1927 -3.8059 -0.2383
                    CHANNELS 6 Xposition Yposition Zposition Zrotation Xrotation Yrotation
                    JOINT RightFinger32
                    {
                      OFFSET 0.1091 -2.1688 -0.1362
                      CHANNELS 6 Xposition Yposition Zposition Zrotation Xrotation Yrotation
                      End Site
                      {
                        OFFSET 0.2358 -1.9176 -0.0906
                      }
                    }
                  }
                }
                JOINT RightFinger4
                {
                  OFFSET 0.6151 -8.0947 -3.564
                  CHANNELS 6 Xposition Yposition Zposition Zrotation Xrotation Yrotation
                  JOINT RightFinger41
                  {
                    OFFSET 0.4882 -2.341 -0.6462
                    CHANNELS 6 Xposition Yposition Zposition Zrotation Xrotation Yrotation
                    JOINT RightFinger42
                    {
                      OFFSET 0.3574 -1.7166 -0.4742
                      CHANNELS 6 Xposition Yposition Zposition Zrotation Xrotation Yrotation
                      End Site
                      {
                        OFFSET 0.4187 -1.5237 -0.3496
                      }
                    }
                  }
                }
                JOINT RightFinger0
                {
                  OFFSET 1.4199 -1.8761 1.4221
                  CHANNELS 6 Xposition Yposition Zposition Zrotation Xrotation Yrotation
                  JOINT RightFinger01
                  {
                    OFFSET 1.1472 -3.4929 2.6336
                    CHANNELS 6 Xposition Yposition Zposition Zrotation Xrotation Yrotation
                    JOINT RightFinger02
                    {
                      OFFSET 0.8229 -2.3 1.6571
                      CHANNELS 6 Xposition Yposition Zposition Zrotation Xrotation Yrotation
                      End Site
                      {
                        OFFSET 0.5822 -1.6914 1.1582
                      }
                    }
                  }
                }
              }
            }
          }
        }
      }
    }
  }
  JOINT RightHip
  {
    OFFSET -9.412 3.9771 -0.7758
    CHANNELS 6 Xposition Yposition Zposition Zrotation Xrotation Yrotation
    JOINT RightKnee
    {
      OFFSET -0.7531 -40.938 0
      CHANNELS 6 Xposition Yposition Zposition Zrotation Xrotation Yrotation
      JOINT RightAnkle
      {
        OFFSET 0 -40.1986 0
        CHANNELS 6 Xposition Yposition Zposition Zrotation Xrotation Yrotation
        JOINT RightToe
        {
          OFFSET 0 -4.4182 9.239
          CHANNELS 6 Xposition Yposition Zposition Zrotation Xrotation Yrotation
          End Site
          {
            OFFSET 0 0 6.1981
          }
        }
      }
    }
  }
  JOINT LeftHip
  {
    OFFSET 9.4119 3.9773 -0.7758
    CHANNELS 6 Xposition Yposition Zposition Zrotation Xrotation Yrotation
    JOINT LeftKnee
    {
      OFFSET 0.7532 -40.9383 0
      CHANNELS 6 Xposition Yposition Zposition Zrotation Xrotation Yrotation
      JOINT LeftAnkle
      {
        OFFSET 0 -40.1986 0
        CHANNELS 6 Xposition Yposition Zposition Zrotation Xrotation Yrotation
        JOINT LeftToe
        {
          OFFSET 0 -4.4182 9.239
          CHANNELS 6 Xposition Yposition Zposition Zrotation Xrotation Yrotation
          End Site
          {
            OFFSET 0 0 6.1981
          }
        }
      }
    }
  }
}
MOTION
Frames:	4
Frame Time:	0.0333333
5.80788e-005 67.184 3.4734 0 0 -0 0 8.7983 -4.7612 0 0 -0 0 8.0291 0.4195 0 0 -0 0 9.9351 -2.2114 0 0 -0 0 22.3885 -0.4656 0 0 -0 -0.0001 12.643 3.4389 0 0 -0 2.2603 21.606 7.4023 0 0 -12.5014 13.5163 -1.1332 -5.0146 88.1196 14.2451 10.6914 -0.0995 -28.05 -0.2431 -0.00160068 -0.00239207 0.000740045 0.0679 -23.3996 -0.1402 -8.4365e-005 7.00714e-005 -9.52055e-007 0.7932 -9.069 2.5189 9.93923e-017 -1.98785e-016 -1.59028e-015 -0.8272 -3.3923 0.5977 9.93923e-017 -5.96354e-016 -1.59028e-015 -0.5649 -2.3158 0.4082 -9.93923e-017 -5.96354e-016 -1.59028e-015 0.9159 -9.2044 0.2193 9.93923e-017 -1.98785e-016 -1.59028e-015 0.0117 -4.1944 -0.0248 -0.0128176 0.00232552 8.52707e-005 0.0071 -2.3249 -0.0142 9.93923e-017 5.96354e-016 -0 0.6113 -8.7231 -2.0637 9.93923e-017 -1.98785e-016 -1.59028e-015 -0.1927 -3.8059 -0.2383 -0.0160551 0.00299681 0.000857156 -0.1091 -2.1688 -0.1362 -2.48481e-016 0 3.18055e-015 -0.6151 -8.0947 -3.5641 9.93923e-017 -1.98785e-016 -1.59028e-015 -0.4882 -2.341 -0.6462 -0.0125865 0.0031206 0.00282719 -0.3575 -1.7167 -0.4742 0 1.98785e-016 -0 -1.42 -1.8761 1.4223 9.93923e-017 -1.98785e-016 -1.59028e-015 -1.1471 -3.4929 2.6334 9.93923e-017 -5.96354e-016 -1.59028e-015 -0.823 -2.3 1.6571 -9.93923e-017 -5.96354e-016 -1.59028e-015 -2.2603 21.606 7.4023 -0.865644 0.16582 7.03859 -13.5187 -1.1334 -5.0155 -88.0329 10.2057 -10.5567 0.0994 -28.0499 -0.2431 0.0015593 -0.00248883 -0.000788628 -0.0679 -23.3996 -0.1402 7.87605e-005 4.10553e-005 1.24965e-005 -0.7932 -9.0691 2.5189 -3.97569e-016 -7.95139e-016 3.18055e-015 0.8272 -3.3923 0.5977 -1.98785e-016 -3.97569e-016 3.18055e-015 0.565 -2.3158 0.4082 -1.98785e-016 0 3.18055e-015 -0.916 -9.2044 0.2193 -3.97569e-016 -7.95139e-016 3.18055e-015 -0.0117 -4.1944 -0.0248 0.0129473 0.00231697 -8.70038e-005 -0.0071 -2.3249 -0.0142 9.93923e-017 -7.95139e-016 1.59028e-015 -0.6113 -8.7231 -2.0637 -3.97569e-016 -7.95139e-016 3.18055e-015 0.1927 -3.8059 -0.2383 0.0163314 0.00303369 -0.000872333 0.1091 -2.1688 -0.1362 3.97569e-016 7.95139e-016 -3.18055e-015 0.6151 -8.0947 -3.564 -3.97569e-016 -7.95139e-016 3.18055e-015 0.4882 -2.341 -0.6462 0.0145763 0.00367772 -0.00326275 0.3574 -1.7166 -0.4742 9.93923e-017 -3.97569e-016 -0 1.4199 -1.8761 1.4221 -3.97569e-016 -7.95139e-016 3.18055e-015 1.1472 -3.4929 2.6336 -1.98785e-016 -3.97569e-016 3.18055e-015 0.8229 -2.3 1.6571 -1.98785e-016 0 3.18055e-015 -9.412 3.9771 -0.7758 3.42485 1.36937 -0.0640303 -0.7531 -40.938 0 0.000136572 0.69354 0.00145564 1.77636e-015 -40.1986 -1.11022e-016 -3.42573 -2.06297 -0.0607933 8.88178e-016 -4.4182 9.239 -3.19502e-024 0 -1.48106e-024 9.4119 3.9773 -0.7758 -3.42498 1.36123 0.0639712 0.7532 -40.9383 2.22045e-016 -6.769e-005 0.712612 -0.0012277 8.88179e-016 -40.1986 0 3.42582 -2.07388 0.0612819 -8.88178e-016 -4.4182 9.239 2.55305e-023 0 -2.31416e-026 
39.8405 20.3866 4.38369 -0.00385301 -56.9972 179.995 0 8.7983 -4.7612 -0.204015 8.69206 -0.120534 7.10543e-015 8.0291 0.4195 -0.396253 17.3845 -0.213079 0 9.9351 -2.2114 -0.396254 17.3846 -0.21308 7.10543e-015 22.3885 -0.4656 3.75793e-006 -33.0002 2.12465e-006 -0.0001 12.643 3.4389 2.02763e-008 -15.0017 -1.44403e-007 2.2603 21.606 7.4023 0.656543 -11.6093 -42.1882 13.5163 -1.1332 -5.0146 91.6525 -32.391 12.6608 -0.0995 -28.05 -0.2431 8.54891 -7.38631 12.6891 0.0679 -23.3996 -0.1402 58.9188 -8.70073 15.3094 0.7932 -9.069 2.5189 2.55386e-006 -4.24808e-006 -2.691e-007 -0.8272 -3.3923 0.5977 -2.55386e-006 4.24808e-006 2.69101e-007 -0.5649 -2.3158 0.4082 3.18055e-015 0 7.95139e-016 0.9159 -9.2044 0.2193 2.55386e-006 -4.24808e-006 -2.691e-007 0.0117 -4.1944 -0.0248 -0.0128424 0.00234349 8.97046e-005 0.0071 -2.3249 -0.0142 3.18055e-015 0 -9.54166e-015 0.6113 -8.7231 -2.0637 2.55386e-006 -4.24808e-006 -2.691e-007 -0.1927 -3.8059 -0.2383 -0.0160686 0.00300794 0.000855122 -0.1091 -2.1688 -0.1362 6.05504e-007 -5.44964e-006 1.365e-006 -0.6151 -8.0947 -3.5641 2.55386e-006 -4.24808e-006 -2.691e-007 -0.4882 -2.341 -0.6462 -0.0125579 0.00312172 0.0028154 -0.3575 -1.7167 -0.4742 3.18055e-015 0 -0 -1.42 -1.8761 1.4223 2.55386e-006 -4.24808e-006 -2.691e-007 -1.1471 -3.4929 2.6334 -2.55386e-006 4.24808e-006 2.69101e-007 -0.823 -2.3 1.6571 3.18055e-015 0 7.95139e-016 -2.2603 21.606 7.4023 -0.125687 -10.9831 32.1368 -13.5187 -1.1334 -5.0155 -92.8689 -46.8691 -13.6287 0.0994 -28.0499 -0.2431 -9.22996 -12.5494 -13.1054 -0.0679 -23.3996 -0.1402 -61.1119 -3.56796 -6.61699 -0.7932 -9.0691 2.5189 1.59028e-015 -3.18055e-015 7.95139e-016 0.8272 -3.3923 0.5977 4.77083e-015 -6.36111e-015 4.37326e-015 0.565 -2.3158 0.4082 9.54166e-015 0 3.57812e-015 -0.916 -9.2044 0.2193 1.59028e-015 -3.18055e-015 7.95139e-016 -0.0117 -4.1944 -0.0248 0.0129889 0.00233073 -8.60333e-005 -0.0071 -2.3249 -0.0142 1.32417e-031 -3.18055e-015 2.38542e-015 -0.6113 -8.7231 -2.0637 1.59028e-015 -3.18055e-015 7.95139e-016 0.1927 -3.8059 -0.2383 0.0163235 0.00304085 -0.00088542 0.1091 -2.1688 -0.1362 1.59028e-015 -3.18055e-015 -3.97569e-016 0.6151 -8.0947 -3.564 1.59028e-015 -3.18055e-015 7.95139e-016 0.4882 -2.341 -0.6462 0.0145956 0.00369157 -0.00326958 0.3574 -1.7166 -0.4742 1.59028e-015 3.18055e-015 -1.59028e-015 1.4199 -1.8761 1.4221 1.59028e-015 -3.18055e-015 7.95139e-016 1.1472 -3.4929 2.6336 4.77083e-015 -6.36111e-015 4.37326e-015 0.8229 -2.3 1.6571 9.54166e-015 0 3.57812e-015 -9.412 3.9771 -0.7758 -67.0092 -51.7931 -67.7864 -0.7531 -40.938 3.55271e-015 -117.349 60.5661 117.695 0 -40.1986 0 -17.0769 42.2948 4.37229 7.10543e-015 -4.4182 9.239 -2.07105e-007 6.55243e-006 -8.80646e-006 9.4119 3.9773 -0.7758 67.0035 -51.7973 67.7808 0.7532 -40.9383 4.44089e-016 117.348 60.5663 -117.698 0 -40.1986 -8.88178e-016 17.0752 42.294 -4.37527 3.55271e-015 -4.4182 9.239 -7.01385e-007 4.21809e-006 4.25206e-006 
39.8405 20.3833 4.56026 -0.00385285 -56.9961 179.995 0 8.7983 -4.7612 -0.203519 8.55958 -0.12122 0 8.0291 0.4195 -0.395224 17.1196 -0.214952 0 9.9351 -2.2114 -0.395225 17.1196 -0.214952 0 22.3885 -0.4656 2.973e-006 -32.1936 1.52779e-006 -0.0001 12.643 3.4389 1.21212e-007 -14.4606 8.94183e-009 2.2603 21.606 7.4023 0.608833 -11.3419 -42.8217 13.5163 -1.1332 -5.0146 91.6458 -31.7757 12.7028 -0.0995 -28.05 -0.2431 8.27016 -7.16802 12.6401 0.0679 -23.3996 -0.1402 58.7879 -8.88232 15.3451 0.7932 -9.069 2.5189 -1.05934e-030 6.36111e-015 9.54166e-015 -0.8272 -3.3923 0.5977 -3.18055e-015 6.36111e-015 5.56597e-015 -0.5649 -2.3158 0.4082 4.74047e-006 3.0494e-006 1.64485e-006 0.9159 -9.2044 0.2193 -1.05934e-030 6.36111e-015 9.54166e-015 0.0117 -4.1944 -0.0248 -0.0128689 0.00233472 9.2597e-005 0.0071 -2.3249 -0.0142 9.73785e-007 -1.80207e-006 -8.16357e-007 0.6113 -8.7231 -2.0637 -1.05934e-030 6.36111e-015 9.54166e-015 -0.1927 -3.8059 -0.2383 -0.0160961 0.0029955 0.000860295 -0.1091 -2.1688 -0.1362 8.69476e-006 -4.57125e-006 -1.00402e-006 -0.6151 -8.0947 -3.5641 -1.05934e-030 6.36111e-015 9.54166e-015 -0.4882 -2.341 -0.6462 -0.0125971 0.0031123 0.00283189 -0.3575 -1.7167 -0.4742 -1.59028e-015 -2.95416e-006 1.59028e-015 -1.42 -1.8761 1.4223 -1.05934e-030 6.36111e-015 9.54166e-015 -1.1471 -3.4929 2.6334 -3.18055e-015 6.36111e-015 5.56597e-015 -0.823 -2.3 1.6571 4.74047e-006 3.0494e-006 1.64485e-006 -2.2603 21.606 7.4023 -0.077029 -10.6714 32.6854 -13.5187 -1.1334 -5.0155 -92.7847 -46.3971 -13.5853 0.0994 -28.0499 -0.2431 -9.22945 -12.5489 -13.1054 -0.0679 -23.3996 -0.1402 -60.8172 -3.68447 -6.63694 -0.7932 -9.0691 2.5189 -3.18055e-015 6.36111e-015 4.37326e-015 0.8272 -3.3923 0.5977 1.59028e-015 9.54166e-015 4.37326e-015 0.565 -2.3158 0.4082 6.36111e-015 3.18055e-015 3.97569e-016 -0.916 -9.2044 0.2193 -3.18055e-015 6.36111e-015 4.37326e-015 -0.0117 -4.1944 -0.0248 0.0129363 0.00231245 -7.55909e-005 -0.0071 -2.3249 -0.0142 3.18055e-015 0 1.15295e-014 -0.6113 -8.7231 -2.0637 -3.18055e-015 6.36111e-015 4.37326e-015 0.1927 -3.8059 -0.2383 0.0163392 0.00302567 -0.000873435 0.1091 -2.1688 -0.1362 -1.59028e-015 0 -5.56597e-015 0.6151 -8.0947 -3.564 -3.18055e-015 6.36111e-015 4.37326e-015 0.4882 -2.341 -0.6462 0.0144993 0.00365507 -0.00323919 0.3574 -1.7166 -0.4742 -1.59028e-015 -6.36111e-015 2.38542e-015 1.4199 -1.8761 1.4221 -3.18055e-015 6.36111e-015 4.37326e-015 1.1472 -3.4929 2.6336 1.59028e-015 9.54166e-015 4.37326e-015 0.8229 -2.3 1.6571 6.36111e-015 3.18055e-015 3.97569e-016 -9.412 3.9771 -0.7758 -67.3484 -51.9558 -68.0551 -0.7531 -40.938 0 -117.347 60.5665 117.694 0 -40.1986 0 -17.0756 42.2918 4.37252 0 -4.4182 9.239 3.18055e-015 6.36111e-015 -0 9.4119 3.9773 -0.7758 67.3401 -51.9579 68.0465 0.7532 -40.9383 -1.33227e-015 117.346 60.5667 -117.698 0 -40.1986 8.88178e-016 17.074 42.2912 -4.37554 1.77636e-015 -4.4182 9.239 -3.68094e-006 2.89656e-007 5.00429e-007 
39.8405 20.3801 4.73695 -0.00385285 -56.9961 179.995 0 8.7983 -4.7612 -0.202996 8.42679 -0.121895 -7.10543e-015 8.0291 0.4195 -0.394148 16.854 -0.216803 0 9.9351 -2.2114 -0.394149 16.854 -0.216804 0 22.3885 -0.4656 1.74083e-006 -31.3841 1.16125e-006 -0.0001 12.643 3.4389 -7.46177e-008 -13.9186 -2.90222e-008 2.2603 21.606 7.4023 0.564158 -11.0738 -43.4548 13.5163 -1.1332 -5.0146 91.6389 -31.1602 12.7447 -0.0995 -28.05 -0.2431 7.99145 -6.94929 12.5921 0.0679 -23.3996 -0.1402 58.657 -9.06399 15.3805 0.7932 -9.069 2.5189 1.59028e-015 0 -0 -0.8272 -3.3923 0.5977 6.36111e-015 9.54166e-015 -0 -0.5649 -2.3158 0.4082 -1.59028e-015 6.36111e-015 -1.59028e-015 0.9159 -9.2044 0.2193 1.59028e-015 0 -0 0.0117 -4.1944 -0.0248 -0.0127973 0.00232469 8.00851e-005 0.0071 -2.3249 -0.0142 -1.59028e-015 -3.18055e-015 -0 0.6113 -8.7231 -2.0637 1.59028e-015 0 -0 -0.1927 -3.8059 -0.2383 -0.0160463 0.00299639 0.000847519 -0.1091 -2.1688 -0.1362 4.77083e-015 -3.18055e-015 -2.38542e-015 -0.6151 -8.0947 -3.5641 1.59028e-015 0 -0 -0.4882 -2.341 -0.6462 -0.01255 0.00310877 0.0028089 -0.3575 -1.7167 -0.4742 3.18055e-015 -6.36111e-015 -0 -1.42 -1.8761 1.4223 1.59028e-015 0 -0 -1.1471 -3.4929 2.6334 6.36111e-015 9.54166e-015 -0 -0.823 -2.3 1.6571 -1.59028e-015 6.36111e-015 -1.59028e-015 -2.2603 21.606 7.4023 -0.0314221 -10.3591 33.2335 -13.5187 -1.1334 -5.0155 -92.7002 -45.9243 -13.5421 0.0994 -28.0499 -0.2431 -9.22983 -12.5493 -13.1054 -0.0679 -23.3996 -0.1402 -60.5224 -3.80109 -6.65628 -0.7932 -9.0691 2.5189 -3.18055e-015 -6.36111e-015 -1.98785e-015 0.8272 -3.3923 0.5977 -8.82781e-032 3.18055e-015 1.59028e-015 0.565 -2.3158 0.4082 1.59028e-015 0 -1.19271e-015 -0.916 -9.2044 0.2193 -3.18055e-015 -6.36111e-015 -1.98785e-015 -0.0117 -4.1944 -0.0248 0.0129426 0.00231032 -7.87738e-005 -0.0071 -2.3249 -0.0142 1.59028e-015 -3.18055e-015 -4.77083e-015 -0.6113 -8.7231 -2.0637 -3.18055e-015 -6.36111e-015 -1.98785e-015 0.1927 -3.8059 -0.2383 0.0163511 0.00304362 -0.000865039 0.1091 -2.1688 -0.1362 3.18055e-015 -3.18055e-015 7.95139e-016 0.6151 -8.0947 -3.564 -3.18055e-015 -6.36111e-015 -1.98785e-015 0.4882 -2.341 -0.6462 0.014605 0.00367565 -0.00325696 0.3574 -1.7166 -0.4742 1.59028e-015 -3.18055e-015 1.98785e-015 1.4199 -1.8761 1.4221 -3.18055e-015 -6.36111e-015 -1.98785e-015 1.1472 -3.4929 2.6336 -8.82781e-032 3.18055e-015 1.59028e-015 0.8229 -2.3 1.6571 1.59028e-015 0 -1.19271e-015 -9.412 3.9771 -0.7758 -67.6897 -52.1176 -68.326 -0.7531 -40.938 0 -117.346 60.5669 117.694 -7.10543e-015 -40.1986 0 -17.0743 42.2888 4.37274 7.10543e-015 -4.4182 9.239 -9.92064e-007 -4.69148e-006 9.58831e-006 9.4119 3.9773 -0.7758 67.6791 -52.1177 68.3146 0.7532 -40.9383 -8.88178e-016 117.344 60.5671 -117.698 -1.77636e-015 -40.1986 -4.44089e-016 17.0727 42.2881 -4.37576 0 -4.4182 9.239 4.05523e-006 -1.30613e-005 -1.51737e-005 
